# xmcd
#
# Track frame offsets:
#   150
#   16849
#   34582
#   57760
#   75225
#   90687
#   107354
#   123810
#   144431
#   159049
#   187775
#   201355
#   216886
#   235201
#   250225
#   256015
#
# Disc length: 3639 seconds
#
# Revision: 0
# Processed by: cddbd v1.5.1PL0 Copyright (c) Steve Scherf et al.
# Submitted via: uFREEDB ActiveX Control 1.5
#
DISCID=b70e3510
DTITLE=América Nacional - América Nacional
DYEAR=2005
DGENRE=Pop
TTITLE0=Soy Lovo Por Tí Améroca
TTITLE1=Até Pensei
TTITLE2=A volta
TTITLE3=Pra Rua Me Levar
TTITLE4=Feitiço da Vila
TTITLE5=Nervos de Aço
TTITLE6=Mágoa de Boiadeiro
TTITLE7=Os Amantes
TTITLE8=Girassóis Azuis II
TTITLE9=Vida de Viajante
TTITLE10=Shés a Carioca (Ela é Carioca)
TTITLE11=Você
TTITLE12=Um Matuto em Nova York
TTITLE13=Sinfonia dos Sonhos
TTITLE14=Órfãos do Paraíso
TTITLE15=Fera Mansa
EXTD=
EXTT0=
EXTT1=
EXTT2=
EXTT3=
EXTT4=
EXTT5=
EXTT6=
EXTT7=
EXTT8=
EXTT9=
EXTT10=
EXTT11=
EXTT12=
EXTT13=
EXTT14=
EXTT15=
PLAYORDER=
